<svg xmlns="http://www.w3.org/2000/svg" width="512" height="512" viewBox="0 0 135.467 135.467" ><path d="M88.053 101.6c-2.74 0-5.209 1.65-6.258 4.181s-.469 5.444 1.468 7.382 4.851 2.517 7.382 1.468 4.181-3.518 4.181-6.258c0-3.741-3.033-6.773-6.773-6.773zm-40.64 0h-20.32c-3.728.018-6.741 3.045-6.741 6.773s3.013 6.755 6.741 6.773h20.32c3.728-.018 6.741-3.045 6.741-6.773s-3.013-6.755-6.741-6.773zm60.96 0c-2.74 0-5.209 1.65-6.258 4.181s-.469 5.444 1.468 7.382 4.851 2.517 7.382 1.468 4.181-3.518 4.181-6.258c0-3.741-3.033-6.773-6.773-6.773zm-20.32-40.64c-2.74 0-5.209 1.65-6.258 4.181s-.469 5.444 1.468 7.382 4.851 2.517 7.382 1.468 4.181-3.518 4.181-6.258c0-3.741-3.033-6.773-6.773-6.773zm-40.64 0h-20.32c-3.728.018-6.741 3.045-6.741 6.773s3.013 6.756 6.741 6.773h20.32c3.728-.018 6.741-3.045 6.741-6.773s-3.013-6.756-6.741-6.773zm60.96-40.64c-2.74 0-5.209 1.65-6.258 4.181s-.469 5.444 1.468 7.382 4.85 2.517 7.382 1.468 4.181-3.518 4.181-6.258c0-3.741-3.032-6.773-6.773-6.773zm0 40.64c-2.74 0-5.209 1.65-6.258 4.181s-.469 5.444 1.468 7.382 4.851 2.517 7.382 1.468 4.181-3.518 4.181-6.258c0-3.741-3.033-6.773-6.773-6.773zm27.093-40.64c0-11.222-9.098-20.32-20.32-20.32H20.32C9.097 0 0 9.097 0 20.32v13.547a20.32 20.32 0 0 0 5.283 13.547A20.32 20.32 0 0 0 0 60.96v13.547a20.32 20.32 0 0 0 5.283 13.547A20.32 20.32 0 0 0 0 101.6v13.547a20.32 20.32 0 0 0 20.32 20.32h94.827a20.32 20.32 0 0 0 20.32-20.32V101.6a20.32 20.32 0 0 0-5.283-13.547 20.32 20.32 0 0 0 5.283-13.547V60.96a20.32 20.32 0 0 0-5.283-13.547 20.32 20.32 0 0 0 5.283-13.547zm-13.547 94.827c0 1.796-.714 3.519-1.984 4.79s-2.993 1.984-4.79 1.984H20.32c-1.796 0-3.519-.714-4.79-1.984s-1.984-2.993-1.984-4.79V101.6c0-1.796.714-3.519 1.984-4.79s2.993-1.984 4.79-1.984h94.827c1.796 0 3.519.714 4.79 1.984s1.984 2.993 1.984 4.79zm0-40.64c0 1.796-.714 3.519-1.984 4.79s-2.993 1.984-4.79 1.984H20.32c-1.796 0-3.519-.714-4.79-1.984s-1.984-2.993-1.984-4.79V60.96c0-1.796.714-3.519 1.984-4.79s2.993-1.984 4.79-1.984h94.827c1.796 0 3.519.714 4.79 1.984s1.984 2.993 1.984 4.79zm0-40.64c0 1.796-.714 3.519-1.984 4.79s-2.993 1.984-4.79 1.984H20.32c-1.796 0-3.519-.714-4.79-1.984s-1.984-2.993-1.984-4.79V20.32c0-1.796.714-3.519 1.984-4.79s2.993-1.984 4.79-1.984h94.827c1.796 0 3.519.714 4.79 1.984s1.984 2.993 1.984 4.79zM88.053 20.32c-2.74 0-5.209 1.65-6.258 4.181s-.469 5.444 1.468 7.382 4.85 2.517 7.382 1.468 4.181-3.518 4.181-6.258c0-3.741-3.032-6.773-6.773-6.773zm-40.64 0h-20.32c-3.731.014-6.748 3.042-6.748 6.773s3.017 6.759 6.748 6.773h20.32c3.731-.014 6.748-3.042 6.748-6.773s-3.017-6.759-6.748-6.773z" fill="#e1e1e1"/></svg>