<?xml version="1.0" encoding="UTF-8" standalone="no"?>
<!-- Created with Inkscape (http://www.inkscape.org/) -->

<svg
   width="256"
   height="255.99998"
   viewBox="0 0 67.733334 67.733329"
   version="1.1"
   id="svg1"
   xml:space="preserve"
   xmlns="http://www.w3.org/2000/svg"
   xmlns:svg="http://www.w3.org/2000/svg"><defs
     id="defs1" /><g
     id="layer1"
     transform="translate(-135.46667,-61.562713)"><g
       fill="none"
       id="g1"
       transform="matrix(0.26458333,0,0,0.26458333,135.46667,61.562714)"><path
         d="m 157.32031,225.00195 c -3.26344,-0.26528 -4.51757,-2.73003 -4.51757,-4.92187 0,-3.294 0.11523,-14.06142 0.11523,-27.44141 0,-9.32999 -3.19621,-15.41553 -6.7832,-18.51953 22.26798,-2.475 45.66211,-10.93284 45.66211,-49.3418 0,-10.91799 -3.87902,-19.8388 -10.29102,-26.841795 1.039,-2.517998 4.46253,-12.689905 -0.98047,-26.462891 0,0 -8.38567,-2.688987 -27.47265,10.25 -7.991,-2.215998 -16.55279,-3.327235 -25.05078,-3.365235 -8.499,0.038 -17.05426,1.150237 -25.03126,3.365235 -19.109976,-12.936987 -27.507808,-10.25 -27.507808,-10.25 -5.429995,13.773986 -2.007749,23.943893 -0.96875,26.462891 -6.396994,7.002995 -10.302735,15.923805 -10.302735,26.841795 0,38.31696 23.34957,46.89288 45.560543,49.42188 -2.85999,2.497 -5.45161,6.9071 -6.3496,13.37109 -5.705999,2.555 -20.180623,6.97549 -29.099615,-8.3125 0,0 -5.288088,-9.59969 -15.330078,-10.30469 0,0 -9.756585,-0.12886 -0.683594,6.07813 0,0 6.553521,3.07382 11.103516,14.63281 0,0 5.869482,17.84782 33.689451,11.79883 0.043,8.35599 0.13672,16.23219 0.13672,18.61719 0,2.55444 -1.74478,5.50083 -6.378905,4.85547 9.565955,2.87851 19.756375,4.43945 30.345705,4.43945 10.51097,0 20.63037,-1.53534 30.13476,-4.37305 z"
         style="fill:#303030;fill-opacity:1;stroke-width:0.763981"
         id="path13" /><path
         d="m 225.37305,152.79883 c 1.27804,-6.11096 1.95703,-12.43434 1.95703,-18.91407 0,-52.900908 -44.66388,-95.488279 -100.14453,-95.488279 -47.840813,0 -87.61239,31.676934 -97.666018,74.316409 C 28.539572,118.33186 28,124.10246 28,130.00195 c 0,43.0594 27.219594,79.74408 65.382814,93.82227 1.143437,0.38858 2.294584,0.76153 3.457031,1.11133 4.634125,0.64536 6.378905,-2.30103 6.378905,-4.85547 0,-2.385 -0.0937,-10.2612 -0.13672,-18.61719 -27.819969,6.04899 -33.689451,-11.79883 -33.689451,-11.79883 -4.549995,-11.55899 -11.103516,-14.63281 -11.103516,-14.63281 -9.072991,-6.20699 0.683594,-6.07813 0.683594,-6.07813 10.04199,0.705 15.330078,10.30469 15.330078,10.30469 8.918992,15.28799 23.393616,10.8675 29.099615,8.3125 0.89799,-6.46399 3.48961,-10.87409 6.3496,-13.37109 -22.210973,-2.529 -45.560543,-11.10492 -45.560543,-49.42188 0,-10.91799 3.905741,-19.8388 10.302735,-26.841795 -1.038999,-2.518998 -4.461245,-12.688905 0.96875,-26.462891 0,0 8.397832,-2.686987 27.507808,10.25 7.977,-2.214998 16.53226,-3.327235 25.03126,-3.365235 8.49799,0.038 17.05978,1.149237 25.05078,3.365235 19.08698,-12.938987 27.47265,-10.25 27.47265,-10.25 5.443,13.772986 2.01947,23.944893 0.98047,26.462891 6.412,7.002995 10.29102,15.923805 10.29102,26.841795 0,38.40896 -23.39413,46.8668 -45.66211,49.3418 3.58699,3.104 6.7832,9.18954 6.7832,18.51953 0,13.37999 -0.11523,24.14741 -0.11523,27.44141 0,2.19184 1.25413,4.65659 4.51757,4.92187 13.7723,-4.11196 26.23776,-10.97812 36.7129,-19.91992 15.36144,-13.51848 26.53454,-31.67187 31.33984,-52.2832 z"
         style="fill:#ffffff;fill-opacity:1"
         id="path12" /></g></g></svg>
