<svg xmlns="http://www.w3.org/2000/svg" width="426.663" height="426.672" viewBox="0 0 112.888 112.89" ><circle cx="56.444" cy="56.445" r="55.534" fill="#0076b2" paint-order="stroke fill markers"/><path fill="#fff" d="M28.162 42.945h12.123V81.95H28.162zm6.065-19.413a7.03 7.03 0 0 1 4.968 12.001 7.03 7.03 0 0 1-11.996-4.979 7.03 7.03 0 0 1 7.029-7.022m13.662 19.413H59.51V48.3h.161c1.62-3.066 5.569-6.299 11.467-6.299 12.277-.027 14.553 8.053 14.553 18.529V81.95H73.568V62.973c0-4.518-.08-10.336-6.299-10.336s-7.276 4.927-7.276 10.041V81.95H47.889z"/></svg>