<?xml version="1.0" encoding="UTF-8" standalone="no"?>
<!-- Created with Inkscape (http://www.inkscape.org/) -->

<svg
   width="319.84055"
   height="191.26343"
   viewBox="0 0 84.624479 50.605115"
   version="1.1"
   id="svg1"
   xml:space="preserve"
   xmlns="http://www.w3.org/2000/svg"
   xmlns:svg="http://www.w3.org/2000/svg"><defs
     id="defs1" /><g
     id="layer1"
     transform="translate(7.0731118,-343.33815)"><g
       id="g4"
       transform="matrix(0.33202615,0,0,0.33202615,-7.2612465,343.30993)"><path
         fill="#252f3e"
         d="m 72.392,55.438 c 0,3.137 0.34,5.68 0.933,7.545 a 45.373,45.373 0 0 0 2.712,6.103 c 0.424,0.678 0.593,1.356 0.593,1.95 0,0.847 -0.508,1.695 -1.61,2.543 l -5.34,3.56 c -0.763,0.509 -1.526,0.763 -2.205,0.763 -0.847,0 -1.695,-0.424 -2.543,-1.187 a 26.224,26.224 0 0 1 -3.051,-3.984 c -0.848,-1.44 -1.696,-3.052 -2.628,-5.001 -6.612,7.798 -14.92,11.698 -24.922,11.698 -7.12,0 -12.8,-2.035 -16.954,-6.103 -4.153,-4.07 -6.272,-9.495 -6.272,-16.276 0,-7.205 2.543,-13.054 7.714,-17.462 5.17,-4.408 12.037,-6.612 20.768,-6.612 2.882,0 5.849,0.254 8.985,0.678 3.137,0.424 6.358,1.102 9.749,1.865 V 29.33 c 0,-6.443 -1.357,-10.935 -3.985,-13.563 -2.712,-2.628 -7.29,-3.9 -13.817,-3.9 -2.967,0 -6.018,0.34 -9.155,1.103 -3.136,0.762 -6.188,1.695 -9.155,2.882 -1.356,0.593 -2.373,0.932 -2.967,1.102 -0.593,0.17 -1.017,0.254 -1.356,0.254 -1.187,0 -1.78,-0.848 -1.78,-2.628 v -4.154 c 0,-1.356 0.17,-2.373 0.593,-2.966 0.424,-0.594 1.187,-1.187 2.374,-1.78 2.967,-1.526 6.527,-2.798 10.68,-3.815 4.155,-1.102 8.563,-1.61 13.225,-1.61 10.088,0 17.463,2.288 22.21,6.866 4.662,4.577 7.036,11.528 7.036,20.853 V 55.438 Z M 37.976,68.323 c 2.798,0 5.68,-0.508 8.731,-1.526 3.052,-1.017 5.765,-2.882 8.053,-5.425 1.357,-1.61 2.374,-3.39 2.882,-5.425 0.509,-2.034 0.848,-4.493 0.848,-7.375 v -3.56 a 70.791,70.791 0 0 0 -7.799,-1.441 63.874,63.874 0 0 0 -7.968,-0.509 c -5.68,0 -9.833,1.102 -12.63,3.391 -2.798,2.289 -4.154,5.51 -4.154,9.748 0,3.984 1.017,6.951 3.136,8.986 2.035,2.119 5.002,3.136 8.901,3.136 m 68.069,9.155 c -1.526,0 -2.543,-0.254 -3.221,-0.848 -0.678,-0.508 -1.272,-1.695 -1.78,-3.305 L 81.124,7.799 C 80.614,6.103 80.36,5.001 80.36,4.408 c 0,-1.356 0.678,-2.12 2.035,-2.12 h 8.307 c 1.61,0 2.713,0.255 3.306,0.848 0.678,0.509 1.187,1.696 1.695,3.306 l 14.241,56.117 13.224,-56.117 c 0.424,-1.695 0.933,-2.797 1.61,-3.306 0.679,-0.508 1.866,-0.847 3.392,-0.847 h 6.781 c 1.61,0 2.713,0.254 3.39,0.847 0.679,0.509 1.272,1.696 1.611,3.306 L 153.346,63.237 168.01,6.442 c 0.508,-1.695 1.102,-2.797 1.695,-3.306 0.678,-0.508 1.78,-0.847 3.306,-0.847 h 7.883 c 1.357,0 2.12,0.678 2.12,2.119 0,0.424 -0.085,0.848 -0.17,1.356 -0.085,0.509 -0.254,1.187 -0.593,2.12 l -20.43,65.525 c -0.508,1.696 -1.101,2.798 -1.78,3.306 -0.678,0.509 -1.78,0.848 -3.22,0.848 h -7.29 c -1.611,0 -2.713,-0.254 -3.392,-0.848 -0.678,-0.593 -1.271,-1.695 -1.61,-3.39 l -13.14,-54.676 -13.054,54.59 c -0.423,1.696 -0.932,2.798 -1.61,3.391 -0.678,0.594 -1.865,0.848 -3.39,0.848 z m 108.927,2.289 c -4.408,0 -8.816,-0.509 -13.054,-1.526 -4.239,-1.017 -7.544,-2.12 -9.748,-3.39 -1.357,-0.764 -2.29,-1.611 -2.628,-2.374 a 5.983,5.983 0 0 1 -0.509,-2.374 V 65.78 c 0,-1.78 0.678,-2.628 1.95,-2.628 a 4.8,4.8 0 0 1 1.526,0.255 c 0.508,0.17 1.271,0.508 2.119,0.847 a 46.108,46.108 0 0 0 9.324,2.967 50.907,50.907 0 0 0 10.088,1.017 c 5.34,0 9.494,-0.932 12.376,-2.797 2.882,-1.865 4.408,-4.577 4.408,-8.053 0,-2.373 -0.763,-4.323 -2.289,-5.934 -1.526,-1.61 -4.408,-3.051 -8.561,-4.408 l -12.292,-3.814 c -6.188,-1.95 -10.765,-4.832 -13.563,-8.647 -2.797,-3.73 -4.238,-7.883 -4.238,-12.291 0,-3.56 0.763,-6.697 2.289,-9.41 1.525,-2.712 3.56,-5.085 6.103,-6.95 2.543,-1.95 5.425,-3.391 8.816,-4.408 3.39,-1.017 6.95,-1.441 10.68,-1.441 1.865,0 3.815,0.085 5.68,0.339 1.95,0.254 3.73,0.593 5.51,0.932 1.695,0.424 3.306,0.848 4.832,1.357 1.526,0.508 2.712,1.017 3.56,1.525 1.187,0.679 2.034,1.357 2.543,2.12 0.509,0.678 0.763,1.61 0.763,2.797 v 3.984 c 0,1.78 -0.678,2.713 -1.95,2.713 -0.678,0 -1.78,-0.34 -3.22,-1.018 -4.833,-2.204 -10.258,-3.306 -16.276,-3.306 -4.832,0 -8.647,0.763 -11.275,2.374 -2.627,1.61 -3.984,4.069 -3.984,7.544 0,2.374 0.848,4.408 2.543,6.019 1.696,1.61 4.832,3.221 9.325,4.662 l 12.037,3.815 c 6.103,1.95 10.511,4.662 13.139,8.137 2.628,3.476 3.9,7.46 3.9,11.868 0,3.645 -0.764,6.951 -2.205,9.833 -1.525,2.882 -3.56,5.425 -6.188,7.46 -2.628,2.119 -5.764,3.645 -9.409,4.747 -3.815,1.187 -7.799,1.78 -12.122,1.78"
         id="path1-9"
         style="fill:#e1e1e1;fill-opacity:1" /><path
         fill="#ff9900"
         d="m 230.993,120.964 c -27.888,20.599 -68.408,31.534 -103.247,31.534 -48.827,0 -92.821,-18.056 -126.05,-48.064 -2.628,-2.373 -0.255,-5.594 2.881,-3.73 35.942,20.854 80.276,33.484 126.136,33.484 30.94,0 64.932,-6.442 96.212,-19.666 4.662,-2.12 8.646,3.052 4.068,6.442 m 11.614,-13.224 c -3.56,-4.577 -23.566,-2.204 -32.636,-1.102 -2.713,0.34 -3.137,-2.034 -0.678,-3.814 15.936,-11.19 42.13,-7.968 45.181,-4.239 3.052,3.815 -0.848,30.008 -15.767,42.554 -2.288,1.95 -4.492,0.933 -3.475,-1.61 3.39,-8.393 10.935,-27.296 7.375,-31.789"
         id="path2-3" /></g></g></svg>
