<?xml version="1.0" encoding="UTF-8" standalone="no"?>
<!-- Created with Inkscape (http://www.inkscape.org/) -->

<svg
   width="511.99997"
   height="512.00037"
   viewBox="0 0 135.46666 135.46676"
   version="1.1"
   id="svg1"
   xml:space="preserve"
   xmlns="http://www.w3.org/2000/svg"
   xmlns:svg="http://www.w3.org/2000/svg"><defs
     id="defs1" /><g
     id="layer1"
     transform="translate(-294.70683,-31.420559)"><path
       d="m 382.76019,133.02075 a 6.7733421,6.7733421 0 1 0 6.77325,6.77327 6.7733421,6.7733421 0 0 0 -6.77325,-6.77327 z m -40.64005,0 h -20.32003 a 6.7733421,6.7733421 0 0 0 0,13.54653 h 20.32003 a 6.7733421,6.7733421 0 0 0 0,-13.54653 z m 60.96007,0 a 6.7733421,6.7733421 0 1 0 6.77326,6.77327 6.7733421,6.7733421 0 0 0 -6.77326,-6.77327 z M 382.76019,92.380706 a 6.7733421,6.7733421 0 1 0 6.77325,6.773262 6.7733421,6.7733421 0 0 0 -6.77325,-6.773262 z m -40.64005,0 h -20.32003 a 6.7733421,6.7733421 0 0 0 0,13.546534 h 20.32003 a 6.7733421,6.7733421 0 0 0 0,-13.546534 z m 60.96007,-40.640134 a 6.7733421,6.7733421 0 1 0 6.77326,6.77334 6.7733421,6.7733421 0 0 0 -6.77326,-6.77334 z m 0,40.640134 a 6.7733421,6.7733421 0 1 0 6.77326,6.773262 6.7733421,6.7733421 0 0 0 -6.77326,-6.773262 z M 430.17349,51.740572 A 20.320026,20.320026 0 0 0 409.85347,31.420559 h -94.82662 a 20.320026,20.320026 0 0 0 -20.32002,20.320013 v 13.54659 a 20.320026,20.320026 0 0 0 5.28308,13.54679 20.320026,20.320026 0 0 0 -5.28308,13.546754 v 13.546534 a 20.320026,20.320026 0 0 0 5.28308,13.54677 20.320026,20.320026 0 0 0 -5.28308,13.54674 v 13.54653 a 20.320026,20.320026 0 0 0 20.32002,20.32004 h 94.82662 a 20.320026,20.320026 0 0 0 20.32002,-20.32004 v -13.54653 a 20.320026,20.320026 0 0 0 -5.28308,-13.54674 20.320026,20.320026 0 0 0 5.28308,-13.54677 V 92.380706 a 20.320026,20.320026 0 0 0 -5.28308,-13.546754 20.320026,20.320026 0 0 0 5.28308,-13.54679 z m -13.54651,94.826708 a 6.7733421,6.7733421 0 0 1 -6.77351,6.77353 h -94.82662 a 6.7733421,6.7733421 0 0 1 -6.77351,-6.77353 v -13.54653 a 6.7733421,6.7733421 0 0 1 6.77351,-6.77348 h 94.82662 a 6.7733421,6.7733421 0 0 1 6.77351,6.77348 z m 0,-40.64004 a 6.7733421,6.7733421 0 0 1 -6.77351,6.77352 h -94.82662 a 6.7733421,6.7733421 0 0 1 -6.77351,-6.77352 V 92.380706 a 6.7733421,6.7733421 0 0 1 6.77351,-6.773484 h 94.82662 a 6.7733421,6.7733421 0 0 1 6.77351,6.773484 z m 0,-40.640078 a 6.7733421,6.7733421 0 0 1 -6.77351,6.77353 h -94.82662 a 6.7733421,6.7733421 0 0 1 -6.77351,-6.77353 v -13.54659 a 6.7733421,6.7733421 0 0 1 6.77351,-6.77333 h 94.82662 a 6.7733421,6.7733421 0 0 1 6.77351,6.77333 z m -33.86679,-13.54659 a 6.7733421,6.7733421 0 1 0 6.77325,6.77334 6.7733421,6.7733421 0 0 0 -6.77325,-6.77334 z m -40.64005,0 h -20.32003 a 6.7733421,6.7733421 0 0 0 0,13.54659 h 20.32003 a 6.7733421,6.7733421 0 0 0 0,-13.54659 z"
       id="path1-2"
       style="fill:#e1e1e1;fill-opacity:1;stroke-width:6.77333" /></g></svg>
