<?xml version="1.0" encoding="UTF-8" standalone="no"?>
<!-- Created with Inkscape (http://www.inkscape.org/) -->

<svg
   width="426.66342"
   height="426.67245"
   viewBox="0 0 112.88803 112.89042"
   version="1.1"
   id="svg1"
   xml:space="preserve"
   xmlns="http://www.w3.org/2000/svg"
   xmlns:svg="http://www.w3.org/2000/svg"><defs
     id="defs1" /><g
     id="layer1"
     transform="translate(-239.61556,-181.15378)"><path
       fill="currentColor"
       d="M 239.61556,199.49823 A 18.344445,18.344445 0 0 1 257.96,181.15378 h 64.91112 a 18.344445,18.344445 0 0 1 18.34444,18.34445 v 31.93627 a 7.9304445,7.9304445 0 0 0 -5.57671,-4.46476 28.662489,28.662489 0 0 0 -2.88995,-0.47978 v -14.29173 h -84.66667 v 52.21111 c 0,5.45253 4.42524,9.87778 9.87777,9.87778 h 32.03787 l -1.04987,1.04986 a 14.201422,14.201422 0 0 0 -3.92853,7.4168 H 257.96 a 18.344445,18.344445 0 0 1 -18.34444,-18.34444 z m 73.34391,32.07738 -9.67458,-9.66894 a 4.2333334,4.2333334 0 1 0 -5.98311,5.98311 l 9.54476,9.5504 a 28.922133,28.922133 0 0 1 6.11293,-5.87022 m -64.87724,-27.8384 h 84.66667 v -4.23333 a 9.8777778,9.8777778 0 0 0 -9.87778,-9.87778 H 257.96 a 9.8777778,9.8777778 0 0 0 -9.87777,9.87778 z m 35.44711,24.15822 a 4.2333334,4.2333334 0 1 0 -5.98311,-5.98311 l -16.93334,16.93334 a 4.2333334,4.2333334 0 0 0 0,5.9831 l 16.93334,16.93334 a 4.2333334,4.2333334 0 1 0 5.98311,-5.98312 l -13.94178,-13.94177 z m 50.90725,4.59458 c 1.99249,0.43462 2.48355,2.86174 1.04422,4.30107 l -10.75267,10.74702 a 8.6210459,8.6210459 0 0 0 12.192,12.192 l 10.75267,-10.74703 c 1.43933,-1.43933 3.86644,-0.94826 4.30107,1.04423 a 23.001111,23.001111 0 0 1 -31.43957,26.08862 l -15.40368,15.40934 a 8.6210459,8.6210459 0 0 1 -12.192,-12.192 l 15.40933,-15.40934 a 22.995467,22.995467 0 0 1 26.08863,-31.43955"
       id="path1"
       style="stroke-width:5.64444" /></g></svg>
