<?xml version="1.0" encoding="UTF-8" standalone="no"?>
<!-- Created with Inkscape (http://www.inkscape.org/) -->

<svg
   width="426.66339"
   height="426.67245"
   viewBox="0 0 112.88802 112.89042"
   version="1.1"
   id="svg1"
   xml:space="preserve"
   xmlns="http://www.w3.org/2000/svg"
   xmlns:svg="http://www.w3.org/2000/svg"><defs
     id="defs1" /><g
     id="layer1"
     transform="translate(-239.61557,-38.984174)"><path
       fill="currentColor"
       d="m 239.61557,57.328614 a 18.344445,18.344445 0 0 1 18.34444,-18.34444 h 64.91111 a 18.344445,18.344445 0 0 1 18.34445,18.34444 v 31.93627 a 7.9304445,7.9304445 0 0 0 -5.57671,-4.46476 28.662489,28.662489 0 0 0 -2.88996,-0.47978 v -14.29173 h -84.66667 v 52.211116 c 0,5.45254 4.42525,9.87778 9.87778,9.87778 h 32.03787 l -1.04987,1.04987 a 14.201422,14.201422 0 0 0 -3.92853,7.4168 h -27.05947 a 18.344445,18.344445 0 0 1 -18.34444,-18.34445 z m 73.34391,32.07738 -9.67458,-9.66893 a 4.2333334,4.2333334 0 1 0 -5.98311,5.98311 l 9.54476,9.5504 a 28.922133,28.922133 0 0 1 6.11293,-5.87023 m -64.87725,-27.8384 h 84.66667 v -4.23333 a 9.8777778,9.8777778 0 0 0 -9.87778,-9.87778 h -64.91111 a 9.8777778,9.8777778 0 0 0 -9.87778,9.87778 z m 35.44712,24.15823 a 4.2333334,4.2333334 0 1 0 -5.98312,-5.98311 l -16.93333,16.93333 a 4.2333334,4.2333334 0 0 0 0,5.983116 l 16.93333,16.93333 a 4.2333334,4.2333334 0 1 0 5.98312,-5.98311 L 269.58757,99.661944 Z m 50.90724,4.59457 c 1.99249,0.43463 2.48356,2.86174 1.04422,4.30107 l -10.75266,10.747026 a 8.6210459,8.6210459 0 0 0 12.192,12.192 l 10.75266,-10.74702 c 1.43934,-1.43933 3.86645,-0.94827 4.30107,1.04422 a 23.001111,23.001111 0 0 1 -31.43956,26.08863 L 305.13063,149.35 a 8.6210459,8.6210459 0 0 1 -12.192,-12.192 l 15.40934,-15.40933 a 22.995467,22.995467 0 0 1 26.08862,-31.439566"
       id="path1-6"
       style="fill:#e1e1e1;fill-opacity:1;stroke-width:5.64444" /></g></svg>
