<?xml version="1.0" encoding="UTF-8" standalone="no"?>
<!-- Created with Inkscape (http://www.inkscape.org/) -->

<svg
   width="512"
   height="512.00006"
   viewBox="0 0 135.46667 135.46668"
   version="1.1"
   id="svg1"
   xml:space="preserve"
   xmlns="http://www.w3.org/2000/svg"
   xmlns:svg="http://www.w3.org/2000/svg"><defs
     id="defs1" /><g
     id="layer1"
     transform="translate(-486.84293,-31.420602)"><path
       d="m 609.6096,31.420602 h -84.66667 c -7.01146,0 -12.7,5.68855 -12.7,12.7 v 12.7 h -12.7 c -7.01146,0 -12.7,5.68855 -12.7,12.7 v 84.666678 c 0,7.01146 5.68854,12.7 12.7,12.7 h 84.66666 c 7.01147,0 12.70001,-5.68854 12.70001,-12.7 v -12.7 h 12.7 c 7.01146,0 12.7,-5.68854 12.7,-12.7 V 44.120602 c 0,-7.01145 -5.68854,-12.7 -12.7,-12.7 z M 584.20959,154.18728 H 499.54293 V 99.153947 h 84.66666 z m 25.40001,-25.4 h -12.7 V 69.520602 c 0,-7.01145 -5.68854,-12.7 -12.70001,-12.7 h -59.26666 v -12.7 h 84.66667 z"
       id="path1"
       style="fill:#e1e1e1;fill-opacity:1;stroke-width:0.264583" /></g></svg>
