<?xml version="1.0" encoding="UTF-8" standalone="no"?>
<!-- Created with Inkscape (http://www.inkscape.org/) -->

<svg
   width="426.66345"
   height="426.67245"
   viewBox="0 0 112.88804 112.89042"
   version="1.1"
   id="svg1"
   xml:space="preserve"
   xmlns="http://www.w3.org/2000/svg"
   xmlns:svg="http://www.w3.org/2000/svg"><defs
     id="defs1" /><g
     id="layer1"
     transform="translate(-112.88932,-38.984169)"><circle
       style="fill:#0076b2;fill-opacity:1;stroke:none;stroke-width:1.82011;stroke-linecap:square;stroke-linejoin:round;stroke-dasharray:none;stroke-opacity:1;paint-order:stroke fill markers"
       id="path3"
       cx="169.33334"
       cy="95.429382"
       r="55.53397" /><path
       fill="#ffffff"
       d="m 141.05121,81.928551 h 12.12283 v 39.005879 h -12.12283 z m 6.06476,-19.412586 a 7.0286951,7.0286951 0 1 1 -7.02869,7.022001 7.0286951,7.0286951 0 0 1 7.02869,-7.022001 m 13.66245,19.412586 h 11.62077 v 5.355197 h 0.16065 c 1.61996,-3.065849 5.56941,-6.29905 11.46681,-6.29905 12.27679,-0.02677 14.55275,8.052877 14.55275,18.528955 v 21.420777 h -12.12282 v -18.97747 c 0,-4.518435 -0.0803,-10.335504 -6.29906,-10.335504 -6.21871,0 -7.27636,4.926775 -7.27636,10.040964 v 19.27201 h -12.10274 z"
       id="path2-0"
       style="stroke-width:0.669397" /></g></svg>
