<svg xmlns="http://www.w3.org/2000/svg" width="319.841" height="191.263" viewBox="0 0 84.624 50.605" ><path fill="#e1e1e1" d="M23.848 18.379c0 1.042.113 1.886.31 2.505.25.697.551 1.374.9 2.026.141.225.197.45.197.647 0 .281-.169.563-.535.844l-1.773 1.182c-.253.169-.507.253-.732.253-.281 0-.563-.141-.844-.394-.379-.408-.718-.85-1.013-1.323l-.873-1.66c-2.195 2.589-4.954 3.884-8.275 3.884-2.364 0-4.25-.676-5.629-2.026s-2.082-3.153-2.082-5.404c0-2.392.844-4.334 2.561-5.798s3.997-2.195 6.896-2.195c.957 0 1.942.084 2.983.225s2.111.366 3.237.619V9.71c0-2.139-.451-3.631-1.323-4.503-.9-.873-2.42-1.295-4.588-1.295-.985 0-1.998.113-3.04.366a22.38 22.38 0 0 0-3.04.957c-.45.197-.788.309-.985.366s-.338.084-.45.084c-.394 0-.591-.282-.591-.873V3.433c0-.45.056-.788.197-.985s.394-.394.788-.591C7.13 1.351 8.312.929 9.691.591c1.38-.366 2.843-.535 4.391-.535 3.349 0 5.798.76 7.374 2.28 1.548 1.52 2.336 3.828 2.336 6.924v9.119zm-11.427 4.278c.929 0 1.886-.169 2.899-.507s1.914-.957 2.674-1.801c.451-.535.788-1.126.957-1.801s.282-1.492.282-2.449v-1.182c-.854-.208-1.718-.367-2.589-.478a21.21 21.21 0 0 0-2.646-.169c-1.886 0-3.265.366-4.193 1.126s-1.379 1.829-1.379 3.237c0 1.323.338 2.308 1.041 2.984.676.704 1.661 1.041 2.955 1.041m22.601 3.04c-.507 0-.844-.084-1.069-.282-.225-.169-.422-.563-.591-1.097L26.747 2.561c-.169-.563-.254-.929-.254-1.126 0-.45.225-.704.676-.704h2.758c.535 0 .901.085 1.098.282.225.169.394.563.563 1.098l4.728 18.632 4.391-18.632c.141-.563.31-.929.535-1.098s.62-.281 1.126-.281h2.251c.535 0 .901.084 1.126.281.225.169.422.563.535 1.098l4.447 18.857 4.869-18.857c.169-.563.366-.929.563-1.098.225-.169.591-.281 1.098-.281h2.617c.451 0 .704.225.704.704 0 .141-.028.282-.056.45s-.084.394-.197.704l-6.783 21.756c-.169.563-.366.929-.591 1.098s-.591.282-1.069.282h-2.42c-.535 0-.901-.084-1.126-.282s-.422-.563-.535-1.126L43.436 6.164l-4.334 18.125c-.14.563-.309.929-.535 1.126s-.619.282-1.126.282zm36.167.76c-1.464 0-2.927-.169-4.334-.507s-2.505-.704-3.237-1.126c-.451-.254-.76-.535-.873-.788s-.167-.517-.169-.788v-1.435c0-.591.225-.873.647-.873.172.001.343.029.507.085.169.056.422.169.704.281a15.31 15.31 0 0 0 3.096.985 16.9 16.9 0 0 0 3.349.338c1.773 0 3.152-.309 4.109-.929s1.464-1.52 1.464-2.674c0-.788-.253-1.435-.76-1.97s-1.464-1.013-2.842-1.464l-4.081-1.266c-2.055-.647-3.574-1.604-4.503-2.871-.929-1.238-1.407-2.617-1.407-4.081 0-1.182.253-2.224.76-3.124s1.182-1.688 2.026-2.308c.844-.647 1.801-1.126 2.927-1.464S70.878 0 72.117 0c.619 0 1.267.028 1.886.113l1.829.309 1.604.451c.507.169.9.338 1.182.506.394.225.675.451.844.704.169.225.253.535.253.929v1.323c0 .591-.225.901-.647.901-.225 0-.591-.113-1.069-.338-1.605-.732-3.406-1.098-5.404-1.098-1.604 0-2.871.253-3.744.788s-1.323 1.351-1.323 2.505c0 .788.282 1.464.844 1.998s1.604 1.069 3.096 1.548l3.997 1.267c2.026.647 3.49 1.548 4.362 2.702s1.295 2.477 1.295 3.94c0 1.21-.254 2.308-.732 3.265-.506.957-1.182 1.801-2.055 2.477-.873.704-1.914 1.21-3.124 1.576-1.267.394-2.589.591-4.025.591"/><path fill="#f90" d="M76.508 40.135c-9.26 6.839-22.713 10.47-34.281 10.47-16.212 0-30.819-5.995-41.852-15.958-.873-.788-.085-1.857.957-1.238 11.934 6.924 26.654 11.118 41.88 11.118 10.273 0 21.559-2.139 31.945-6.53 1.548-.704 2.871 1.013 1.351 2.139m3.856-4.391c-1.182-1.52-7.825-.732-10.836-.366-.901.113-1.042-.675-.225-1.266 5.291-3.715 13.988-2.646 15.001-1.407 1.013 1.267-.282 9.963-5.235 14.129-.76.647-1.491.31-1.154-.535 1.126-2.787 3.631-9.063 2.449-10.555"/></svg>