<svg xmlns="http://www.w3.org/2000/svg" width="256" height="256" viewBox="0 0 67.733 67.733" xmlns:v="https://vecta.io/nano"><path d="M43.874 64.615c-1.101-.09-1.525-.921-1.525-1.661l.039-9.261c0-3.149-1.079-5.202-2.289-6.25 7.515-.835 15.409-3.689 15.409-16.651 0-3.684-1.309-6.695-3.473-9.058.351-.85 1.506-4.282-.331-8.93 0 0-2.83-.907-9.271 3.459-2.697-.748-5.586-1.123-8.454-1.136-2.868.013-5.755.388-8.447 1.136-6.449-4.366-9.283-3.459-9.283-3.459-1.832 4.648-.678 8.08-.327 8.93-2.159 2.363-3.477 5.374-3.477 9.058 0 12.931 7.88 15.825 15.375 16.678-.965.843-1.84 2.331-2.143 4.512-1.926.862-6.81 2.354-9.82-2.805 0 0-1.785-3.24-5.173-3.477 0 0-3.293-.043-.231 2.051 0 0 2.212 1.037 3.747 4.938 0 0 1.981 6.023 11.369 3.982l.046 6.283c0 .862-.589 1.856-2.153 1.639 3.228.971 6.667 1.498 10.241 1.498 3.547 0 6.962-.518 10.169-1.476z" fill="#303030"/><path d="M66.84 40.249c.431-2.062.66-4.196.66-6.383 0-17.852-15.073-32.224-33.795-32.224-16.145 0-29.566 10.69-32.959 25.079a33.92 33.92 0 0 0-.513 5.834c0 14.531 9.186 26.911 22.065 31.662a34.71 34.71 0 0 0 1.167.375c1.564.218 2.153-.777 2.153-1.639l-.046-6.283c-9.388 2.041-11.369-3.982-11.369-3.982-1.535-3.901-3.747-4.938-3.747-4.938-3.062-2.095.231-2.051.231-2.051 3.389.238 5.173 3.477 5.173 3.477 3.01 5.159 7.895 3.667 9.82 2.805.303-2.181 1.178-3.67 2.143-4.512-7.495-.853-15.375-3.748-15.375-16.678 0-3.684 1.318-6.695 3.477-9.058-.351-.85-1.506-4.282.327-8.93 0 0 2.834-.907 9.283 3.459 2.692-.747 5.579-1.123 8.447-1.136 2.868.013 5.757.388 8.454 1.136 6.441-4.366 9.271-3.459 9.271-3.459 1.837 4.648.682 8.081.331 8.93 2.164 2.363 3.473 5.374 3.473 9.058 0 12.962-7.895 15.816-15.409 16.651 1.21 1.047 2.289 3.101 2.289 6.25l-.039 9.261c0 .74.423 1.571 1.525 1.661 4.648-1.388 8.854-3.705 12.389-6.722 5.184-4.562 8.955-10.688 10.576-17.644z" fill="#fff"/></svg>