<svg xmlns="http://www.w3.org/2000/svg" width="426.663" height="426.672" viewBox="0 0 112.888 112.89" ><path d="M0 18.344c0-4.865 1.933-9.531 5.373-12.971S13.479 0 18.344 0h64.911c4.865 0 9.531 1.933 12.971 5.373s5.373 8.106 5.373 12.971v31.936a7.93 7.93 0 0 0-5.577-4.465 28.66 28.66 0 0 0-2.89-.48V31.044H8.466v52.211c0 5.453 4.425 9.878 9.878 9.878h32.038l-1.05 1.05a14.2 14.2 0 0 0-3.929 7.417H18.344C8.213 101.6 0 93.387 0 83.255zm73.344 32.077l-9.675-9.669c-1.055-1.133-2.645-1.599-4.145-1.216s-2.671 1.554-3.054 3.054.083 3.089 1.216 4.145l9.545 9.55a28.92 28.92 0 0 1 6.113-5.87M8.466 22.578h84.667v-4.233a9.88 9.88 0 0 0-9.878-9.878H18.344a9.88 9.88 0 0 0-9.878 9.878zm35.447 24.158c1.133-1.055 1.599-2.645 1.216-4.145s-1.554-2.671-3.054-3.054-3.089.083-4.145 1.216L20.997 57.686c-1.651 1.653-1.651 4.33 0 5.983L37.93 80.602c1.055 1.133 2.645 1.599 4.145 1.216s2.671-1.554 3.054-3.054-.083-3.089-1.216-4.145L29.972 60.678zm50.907 4.595c1.992.435 2.484 2.862 1.044 4.301L85.112 66.378c-3.366 3.367-3.366 8.825 0 12.192s8.825 3.367 12.192 0l10.753-10.747c1.439-1.439 3.866-.948 4.301 1.044a23 23 0 0 1-31.44 26.089l-15.404 15.409c-3.367 3.366-8.825 3.366-12.192 0s-3.367-8.825 0-12.192l15.409-15.409c-3.356-7.916-2.016-17.044 3.475-23.66s14.214-9.618 22.614-7.779"/></svg>